<svg width="200" height="80" viewBox="0 0 200 80" fill="none" xmlns="http://www.w3.org/2000/svg">
<rect width="200" height="80" rx="40" fill="#409190"/>
<path d="M55.2828 38.2497C56.8496 36.8321 58.5283 36.571 60.3189 36.9068C62.3707 37.2798 63.6018 38.5109 64.124 40.488C64.4971 41.9429 64.5344 43.4351 64.1986 44.89C63.6764 47.2402 62.1842 48.6204 59.7967 48.9935C58.4537 49.2173 57.148 49.1427 55.8797 48.7696C53.5295 48.0982 52.0746 46.1956 52.0373 43.6589C52 40.1523 52.0373 36.6456 52 33.139C52 32.5794 52.2238 32.3929 52.7834 32.3556C54.8725 32.3183 55.2828 32.6913 55.2828 34.7804C55.2828 35.8995 55.2828 36.9814 55.2828 38.2497ZM55.3201 42.4278C55.3201 43.0247 55.2828 43.5843 55.3201 44.1812C55.432 45.3749 56.0289 46.0837 56.9988 46.3075C58.0434 46.5314 59.0879 46.4941 60.1324 46.3448C60.5801 46.2702 60.8785 46.0091 60.9531 45.5241C61.1023 44.2185 61.2143 42.9128 60.9904 41.6071C60.7666 40.4507 60.1324 39.7792 58.9387 39.7046C58.118 39.63 57.2973 39.6673 56.4766 39.7046C55.7678 39.7046 55.3947 40.115 55.3574 40.7864C55.2828 41.3087 55.3201 41.8683 55.3201 42.4278Z" fill="white"/>
<path d="M83.0376 38.1751C84.4552 36.8321 86.1339 36.6083 87.9245 36.9067C90.0509 37.2798 91.3192 38.5108 91.8042 40.5626C92.14 41.9802 92.1773 43.4351 91.8788 44.8526C91.3566 47.2401 89.8644 48.6204 87.4769 49.0308C86.1712 49.2546 84.8282 49.18 83.5599 48.8069C81.247 48.1355 79.7548 46.2329 79.7175 43.7708C79.6802 40.2269 79.7175 36.6829 79.6802 33.1763C79.6802 32.654 79.8667 32.4302 80.389 32.4302C82.5153 32.3556 82.9257 32.7286 82.9257 34.8923C82.9257 35.8995 82.9257 36.944 82.9257 37.9513C82.963 37.9513 83.0003 38.0259 83.0376 38.1751ZM88.7452 43.4724C88.7452 42.7263 88.7825 42.0175 88.596 41.3087C88.3349 40.3761 87.7007 39.7419 86.7681 39.6673C85.8355 39.5927 84.9028 39.63 84.0075 39.6673C83.448 39.6673 83.1122 40.0403 83.0003 40.5626C82.7765 41.9056 82.7392 43.2485 83.0376 44.5542C83.2241 45.3749 83.6345 46.0091 84.4925 46.2329C85.5743 46.5314 86.6562 46.5314 87.738 46.3448C88.2603 46.2702 88.5214 45.9718 88.6333 45.4495C88.7825 44.778 88.7452 44.1439 88.7452 43.4724Z" fill="white"/>
<path d="M74.9426 47.464C72.8535 49.4784 70.4287 49.553 67.892 48.5831C66.1387 47.8743 65.3553 46.2702 65.7656 44.4423C66.0641 43.1366 66.8848 42.4279 68.1158 42.0921C69.3842 41.7191 70.6899 41.6818 72.0328 41.7191C72.6297 41.7191 73.2639 41.7191 73.8608 41.7191C74.383 41.7191 74.4949 41.4579 74.3457 41.0103C74.1219 40.3388 73.6369 40.0031 72.9655 39.8538C71.9209 39.63 70.8391 39.7419 69.7573 39.7046C69.4215 39.7046 69.0858 39.7046 68.75 39.7046C67.1086 39.7792 66.9221 39.145 66.8475 37.6156C66.8475 37.2798 66.9967 37.056 67.3698 37.056C69.608 37.0933 71.8463 36.8322 74.0846 37.3171C76.5094 37.8394 77.6658 39.3316 77.7031 41.831C77.7031 43.9573 77.7031 46.0837 77.7031 48.1728C77.7031 48.807 77.5166 49.1054 76.8451 49.0681C75.5022 48.9935 75.3156 48.8816 74.9426 47.464ZM71.8463 46.4568C72.1448 46.4941 72.4432 46.4941 72.7043 46.4941C74.1219 46.4568 74.8307 45.4495 74.4203 44.0693C74.3457 43.8081 74.1592 43.7335 73.9354 43.7335C72.6297 43.7335 71.324 43.7335 69.9811 43.7708C69.6453 43.7708 69.2723 43.92 69.1977 44.2931C68.8992 45.3376 69.0858 46.2702 70.3914 46.4568C70.8391 46.4941 71.3614 46.4568 71.8463 46.4568Z" fill="white"/>
<path d="M100.757 43.9944C99.6753 43.9944 98.5562 44.0317 97.4743 43.9944C96.8028 43.9571 96.7282 44.2556 96.9148 44.7778C97.2505 45.785 98.0339 46.2327 99.0411 46.3073C99.9737 46.3819 100.944 46.3446 101.876 46.3446C102.249 46.3446 102.622 46.3446 102.958 46.3819C104.637 46.4565 104.637 47.2399 104.6 48.471C104.6 48.7694 104.488 48.9933 104.152 48.9933C102.026 48.9559 99.8991 49.2171 97.8101 48.844C95.0122 48.3218 93.4827 46.4192 93.4454 43.5468C93.4454 42.8753 93.4081 42.1665 93.52 41.495C93.9677 38.7718 95.4226 37.3542 98.1831 36.9065C100.459 36.5708 102.66 36.6827 104.338 38.5106C105.532 39.8163 105.831 41.4204 105.495 43.1364C105.346 43.8825 104.749 43.9198 104.189 43.9198C103.033 44.0317 101.914 43.9944 100.757 43.9944ZM99.4515 41.9054C100.198 41.9054 100.906 41.9054 101.652 41.9054C102.175 41.9054 102.287 41.6442 102.175 41.1966C101.951 40.264 101.354 39.7417 100.459 39.4806C99.4888 39.2194 98.5189 39.3313 97.5862 39.4806C97.1759 39.5552 96.9521 39.8163 96.8775 40.2267C96.8029 40.5624 96.7655 40.8981 96.7282 41.2339C96.6536 41.7188 96.8775 41.9054 97.3624 41.9054C98.0712 41.9054 98.78 41.9054 99.4515 41.9054Z" fill="white"/>
<path d="M140.225 48.9935C139.33 48.9935 138.472 48.9935 137.577 48.9935C137.129 48.9935 136.943 48.807 136.905 48.3593C136.831 47.0163 137.241 46.4568 138.547 46.4195C140.039 46.3449 141.568 46.3822 143.061 46.3822C143.434 46.3822 143.919 46.5314 143.993 45.9718C144.068 45.4495 144.03 44.9646 143.508 44.6288C142.762 44.1812 141.904 44.1066 141.046 43.9574C140.263 43.8081 139.479 43.6962 138.696 43.3978C137.465 42.9128 136.793 42.0548 136.756 40.7491C136.719 39.5554 137.166 38.5855 138.248 37.914C139.218 37.3171 140.3 37.0933 141.382 37.056C142.911 36.9814 144.441 37.056 145.97 37.0187C146.53 37.0187 146.679 37.2425 146.679 37.7648C146.679 39.145 146.418 39.5181 145.075 39.63C143.732 39.7046 142.389 39.6673 141.046 39.7046C140.673 39.7046 140.151 39.5554 140.076 40.1896C140.002 40.7865 140.039 41.3087 140.748 41.5325C141.606 41.831 142.501 41.9429 143.396 42.1294C144.105 42.2786 144.777 42.4279 145.448 42.689C146.493 43.174 147.164 43.8827 147.276 45.1138C147.388 46.4941 146.828 47.5386 145.672 48.2101C144.627 48.807 143.508 49.0681 142.314 49.0681C141.643 48.9935 140.934 48.9935 140.225 48.9935Z" fill="white"/>
<path d="M136.421 42.3161C136.421 47.5761 132.168 51.7915 126.908 51.7542C121.648 51.7169 117.433 47.5014 117.47 42.2042C117.47 37.0561 121.797 32.8034 126.983 32.8407C132.243 32.878 136.458 37.1307 136.421 42.3161ZM118.328 42.2788C118.328 47.1657 122.133 50.9708 126.983 50.9708C131.832 50.9708 135.6 47.1284 135.6 42.2415C135.6 37.4292 131.758 33.6241 126.945 33.6241C122.133 33.6614 118.328 37.4665 118.328 42.2788Z" fill="#ED7331"/>
<path d="M132.093 56.4545C130.601 56.4545 129.444 55.298 129.444 53.8431C129.444 52.3509 130.638 51.1199 132.13 51.1199C133.511 51.1199 134.779 52.3882 134.779 53.8058C134.742 55.2607 133.511 56.4545 132.093 56.4545ZM131.944 55.8203C133.138 55.8576 134.07 55.0369 134.107 53.955C134.145 52.7986 133.287 51.8287 132.205 51.7914C130.974 51.7541 129.967 52.6867 129.967 53.8804C129.967 55.0742 130.675 55.783 131.944 55.8203Z" fill="#ED7331"/>
<path d="M132.802 59.4761C132.802 58.357 133.436 57.7228 134.555 57.7228C135.637 57.7228 136.42 58.5062 136.42 59.5507C136.42 60.5952 135.6 61.3413 134.518 61.304C133.399 61.2667 132.765 60.6325 132.802 59.4761ZM135.749 59.588C135.749 58.7673 135.45 58.3943 134.667 58.357C133.809 58.3196 133.436 58.6927 133.436 59.5134C133.436 60.3341 133.809 60.7817 134.592 60.7817C135.376 60.8191 135.749 60.446 135.749 59.588Z" fill="#ED7331"/>
<path d="M106.428 26.4614C106.689 23.9992 109.076 22.0221 111.688 22.0221C114.336 22.0221 116.649 24.0365 116.91 26.6106C115.978 23.9619 114.187 22.4324 111.315 22.5444C108.853 22.6936 107.286 24.1485 106.428 26.4614Z" fill="white"/>
<path d="M106.39 23.0294C106.614 20.53 108.89 18.5155 111.464 18.4036C114.15 18.2917 116.5 20.1942 116.947 22.9548C116.089 20.4554 114.411 18.9259 111.725 18.9259C109.039 18.8886 107.36 20.3435 106.39 23.0294Z" fill="white"/>
<path d="M116.947 40.4878C116.089 37.9884 114.411 36.4962 111.725 36.4589C109.039 36.4216 107.323 37.9138 106.39 40.5251C106.539 38.1003 108.778 36.1232 111.352 35.9367C114.075 35.7501 116.425 37.6527 116.947 40.4878Z" fill="white"/>
<path d="M116.947 44.3304C116.089 41.6445 114.411 40.1523 111.725 40.115C109.039 40.0777 107.323 41.5699 106.39 44.1812C106.539 41.6445 109.076 39.5181 111.725 39.5554C114.373 39.63 116.835 41.7564 116.947 44.3304Z" fill="white"/>
<path d="M106.428 33.2135C106.652 30.7887 109.002 28.8115 111.613 28.7742C114.262 28.7369 116.575 30.6768 116.948 33.3627C116.09 30.8633 114.411 29.3338 111.725 29.2965C109.039 29.2592 107.36 30.7514 106.428 33.2135Z" fill="white"/>
<path d="M106.428 47.3894C106.689 44.8527 109.076 42.9128 111.8 42.9501C114.224 42.9874 116.649 44.9646 116.798 47.1282C115.642 44.6288 113.851 43.2112 111.128 43.4724C108.741 43.6962 107.248 45.1138 106.428 47.3894Z" fill="white"/>
<path d="M106.39 50.9706C106.577 48.4712 108.89 46.4567 111.501 46.3448C114.112 46.2329 116.462 48.1727 116.91 50.896C116.052 48.3966 114.373 46.8671 111.687 46.8671C109.039 46.8298 107.36 48.322 106.39 50.9706Z" fill="white"/>
<path d="M116.798 29.4085C115.679 27.021 113.889 25.678 111.203 25.9018C108.778 26.0883 107.286 27.5059 106.502 29.7815C106.204 28.0655 108.554 25.7526 110.979 25.4169C113.59 25.0438 116.5 26.9837 116.798 29.4085Z" fill="white"/>
<path d="M106.54 36.459C106.95 34.1834 109.412 32.4301 111.986 32.5793C114.299 32.6912 116.612 34.6311 116.798 36.6082C114.747 31.7586 108.517 31.9824 106.54 36.459Z" fill="white"/>
<path d="M106.54 18.8886C106.95 16.613 109.412 14.8596 111.986 15.0089C114.299 15.1208 116.612 17.0606 116.798 19.0378C114.97 14.3747 108.629 14.2628 106.54 18.8886Z" fill="white"/>
<path d="M137.987 63.99C137.987 64.6988 137.614 65.0345 136.943 64.9972C136.309 64.9599 135.936 64.5495 135.936 63.8781C135.936 63.2439 136.346 62.9081 137.055 62.9454C137.726 63.02 137.987 63.2812 137.987 63.99Z" fill="#ED7331"/>
<path d="M126.871 49.18C126.46 49.1427 126.05 49.18 125.64 49.1054C121.835 48.5831 120.492 46.1583 120.604 42.5024C120.604 42.1294 120.678 41.7563 120.753 41.4206C121.275 38.5854 123.14 37.056 126.274 36.8321C127.057 36.7948 127.841 36.7948 128.587 36.944C131.571 37.4663 133.324 39.4808 133.362 42.5024C133.362 43.062 133.399 43.6216 133.324 44.1811C132.877 47.2774 130.9 49.0681 127.729 49.18C127.393 49.1427 127.132 49.1427 126.871 49.18C126.871 49.18 126.871 49.1427 126.871 49.18ZM129.855 43.547C129.855 42.9874 129.93 42.4278 129.855 41.8683C129.743 40.5999 128.997 39.8538 127.729 39.63C126.833 39.4435 125.938 39.5554 125.043 39.6673C124.483 39.7419 124.148 40.0776 124.073 40.6745C123.886 41.8683 123.886 43.062 124.073 44.2185C124.334 45.5987 124.931 46.2329 126.348 46.3821C127.169 46.494 127.99 46.4567 128.811 46.3075C129.482 46.1956 129.818 45.7852 129.855 45.1884C129.892 44.6661 129.855 44.1065 129.855 43.547Z" fill="#ED7331"/>
</svg>
