<svg width="200" height="80" viewBox="0 0 200 80" fill="none" xmlns="http://www.w3.org/2000/svg">
<rect width="200" height="80" rx="40" fill="white"/>
<path d="M46.014 21.8968C53.1139 20.3918 60.8337 22.3071 66.3552 27.6433C74.9683 35.9679 74.9683 49.4642 66.3552 57.788C64.2259 59.8459 61.7698 61.394 59.1482 62.4345C63.124 61.5915 66.9056 59.6762 69.9977 56.6879C78.6108 48.3634 78.6108 34.867 69.9977 26.5432C63.5142 20.2765 53.9978 18.7283 46.014 21.8968Z" fill="#EE8322"/>
<path d="M28.574 48.9592C26.7768 41.0396 29.0642 32.4282 35.4366 26.2695C45.3774 16.662 61.4951 16.662 71.4359 26.2695C73.8935 28.6447 75.7421 31.3844 76.9847 34.3083C75.978 29.8734 73.6911 25.6551 70.122 22.2056C60.1813 12.5981 44.0643 12.5981 34.1228 22.2056C26.6389 29.4386 24.7903 40.0541 28.574 48.9592Z" fill="#009444"/>
<path d="M56.1371 63.1575C47.9429 64.8946 39.0328 62.6836 32.6605 56.5249C22.7196 46.9175 22.7196 31.3407 32.6605 21.7325C35.118 19.3573 37.9527 17.5706 40.9781 16.3698C36.3893 17.3426 32.0248 19.5528 28.4556 23.0023C18.5148 32.6098 18.5148 48.1872 28.4556 57.7948C35.9395 65.0277 46.9232 66.8145 56.1371 63.1575Z" fill="#ED1C24"/>
<path fill-rule="evenodd" clip-rule="evenodd" d="M175.076 34.9745C175.076 33.6368 176.156 32.564 177.509 32.564C178.876 32.564 179.927 33.6368 179.927 34.9745C179.927 36.3415 178.876 37.4145 177.509 37.4145C176.156 37.4145 175.076 36.3415 175.076 34.9745ZM175.681 34.9745C175.681 36.0475 176.458 36.8995 177.523 36.8995C178.56 36.8995 179.323 36.0467 179.323 34.9892C179.323 33.9169 178.56 33.0494 177.509 33.0494C176.458 33.0494 175.681 33.9162 175.681 34.9745Z" fill="#757575"/>
<path fill-rule="evenodd" clip-rule="evenodd" d="M178.056 35.0186V35.048C178.287 35.1364 178.416 35.3127 178.487 35.6366C178.559 36.0037 178.603 36.1508 178.66 36.2392H178.07C178.011 36.1667 177.971 36.0056 177.919 35.7961C177.908 35.75 177.896 35.7016 177.883 35.6512C177.84 35.3872 177.696 35.2693 177.394 35.2693H177.135V36.2392H176.588V33.8286C176.804 33.7847 177.106 33.7555 177.495 33.7555C177.941 33.7555 178.142 33.8286 178.315 33.9316C178.445 34.0342 178.546 34.225 178.546 34.4605C178.546 34.7246 178.344 34.9309 178.056 35.0186ZM177.149 34.8717H177.408C177.71 34.8717 177.955 34.7685 177.955 34.5183C177.955 34.2981 177.796 34.1512 177.451 34.1512C177.307 34.1512 177.206 34.1658 177.149 34.1805V34.8717Z" fill="#757575"/>
<path d="M126.881 50.9121V34.0496C126.881 33.5022 127.069 33.0366 127.444 32.6534C127.819 32.2703 128.275 32.0787 128.811 32.0787H140.285V35.3088H130.634V39.3598H137.819V40.6191C137.819 41.1665 137.631 41.6321 137.256 42.0152C136.88 42.3984 136.424 42.5899 135.888 42.5899H130.634V50.9115H126.881V50.9121Z" fill="#757575"/>
<path d="M141.764 32.0787H143.694C144.194 32.0787 144.623 32.2523 144.981 32.5988C145.338 32.9461 145.517 33.3752 145.517 33.8854V50.9116H141.764V32.0787V32.0787Z" fill="#757575"/>
<path fill-rule="evenodd" clip-rule="evenodd" d="M159.675 46.4228H156.995C156.565 46.4228 156.235 46.5146 156.004 46.6961C155.771 46.8791 155.637 47.024 155.602 47.1339L155.307 47.4352C155.217 47.5269 155.119 47.5909 155.012 47.6268C154.582 47.8829 154.064 48.0099 153.457 48.0099C152.527 48.0099 151.83 47.7185 151.366 47.1339C150.865 46.5865 150.596 45.7476 150.561 44.6154H159.835C159.87 44.543 159.889 44.4152 159.889 44.2323V44.0134V43.6303C159.889 41.2216 159.317 39.3426 158.173 37.9915C156.993 36.6778 155.331 36.0206 153.187 36.0206C151.149 36.0206 149.558 36.6964 148.415 38.0461C147.307 39.3605 146.753 41.1857 146.753 43.5212C146.753 45.9671 147.325 47.8463 148.469 49.1601C149.613 50.511 151.204 51.1856 153.241 51.1856C154.921 51.1856 156.315 50.7664 157.423 49.9264C158.531 49.1242 159.282 47.9553 159.675 46.4228ZM156.03 42.1525H150.561C150.596 41.2045 150.864 40.4742 151.366 39.9625C151.866 39.4518 152.509 39.1957 153.296 39.1957C154.154 39.1957 154.815 39.4518 155.279 39.9625C155.708 40.4375 155.958 41.1673 156.03 42.1525Z" fill="#757575"/>
<path d="M173.343 50.912H169.054L166.534 46.3136L163.907 50.912H159.565L164.229 43.4121L159.833 36.3498H163.961L166.427 40.7301L169.161 36.0219C169.483 35.3647 170.019 35.0367 170.769 35.0367H173.986L168.625 43.468L173.343 50.912Z" fill="#757575"/>
<path d="M123.331 46.9657C122.355 45.3935 121.579 44.2999 121.004 43.6841C120.429 43.0682 119.699 42.5027 118.816 41.9879C120.592 41.7306 121.927 41.1081 122.82 40.1195C123.712 39.1311 124.159 37.8786 124.159 36.3621C124.159 35.1672 123.865 34.1058 123.276 33.1769C122.686 32.2487 121.902 31.6028 120.921 31.2396C119.941 30.8763 118.369 30.6948 116.206 30.6948H111.882V34.1144H114.881C116.537 34.1144 117.532 34.1373 117.863 34.1836C118.526 34.2941 119.038 34.5581 119.402 34.9763C119.766 35.3944 119.948 35.9439 119.948 36.6241C119.948 37.2306 119.809 37.7366 119.534 38.1406C119.258 38.5454 118.875 38.8302 118.387 38.9958C117.9 39.1613 116.676 39.2438 114.715 39.2438H114.656H111.883H99.2159V30.6954H95.1942V50.9096H99.2159V42.4832H113.077C113.732 42.5086 114.236 42.5791 114.576 42.6982C115.009 42.8497 115.418 43.1305 115.805 43.5393C116.191 43.9481 116.909 44.9386 117.959 46.5108L120.913 50.9096H125.801L123.331 46.9657Z" fill="#009444"/>
<rect x="107.346" y="42.9537" width="4.03108" height="7.9559" fill="#009444"/>
<rect x="107.346" y="30.6954" width="4.03108" height="8.07853" fill="#009444"/>
</svg>
