<svg width="1086" height="252" viewBox="0 0 1086 252" fill="none" xmlns="http://www.w3.org/2000/svg">
<rect width="1065" height="252" rx="126" fill="white"/>
<path d="M176 62.1538C176.007 61.0493 176.451 59.9924 177.234 59.2139C178.017 58.4353 179.077 57.9984 180.182 57.9984H192.726C193.835 57.9984 194.899 58.439 195.683 59.2232C196.467 60.0074 196.908 61.071 196.908 62.18V137.414C196.908 138.523 197.348 139.586 198.133 140.37C198.917 141.155 199.98 141.595 201.09 141.595H255.459C256.568 141.595 257.632 141.155 258.416 140.37C259.2 139.586 259.64 138.523 259.64 137.414V124.886C259.64 123.777 259.2 122.714 258.416 121.929C257.632 121.145 256.568 120.705 255.459 120.705H230.369C227.042 120.705 223.851 119.383 221.499 117.03C219.146 114.678 217.825 111.487 217.825 108.16V70.5432C217.825 67.2161 219.146 64.0253 221.499 61.6727C223.851 59.3201 227.042 57.9984 230.369 57.9984H267.986C271.313 57.9984 274.504 59.3201 276.857 61.6727C279.209 64.0253 280.531 67.2161 280.531 70.5432V150.002C280.531 153.329 279.209 156.52 276.857 158.873C274.504 161.225 271.313 162.547 267.986 162.547H188.545C185.218 162.547 182.027 161.225 179.674 158.873C177.322 156.52 176 153.329 176 150.002V62.1538ZM259.64 83.0617C259.64 81.9527 259.2 80.8891 258.416 80.1049C257.632 79.3207 256.568 78.8801 255.459 78.8801H238.733V95.6152C238.733 96.7242 239.173 97.7878 239.957 98.572C240.742 99.3562 241.805 99.7968 242.914 99.7968H259.64V83.0617Z" fill="url(#paint0_linear)"/>
<path d="M325.217 51V167.262H345.337V51H325.217ZM444.401 133.512C447.559 99.7444 430.404 82.7731 402.987 82.7731C376.376 82.7731 359.413 100.733 359.413 125.682C359.413 151.927 376.209 169.423 404.483 169.423C416.958 169.423 431.095 165.101 439.747 156.117L426.773 143.31C422.119 148.13 412.304 150.964 404.816 150.964C390.513 150.964 381.694 143.642 380.365 133.468L444.401 133.512ZM380.697 116.716C383.689 106.069 392.673 100.75 403.652 100.75C415.296 100.75 423.607 106.069 424.945 116.716H380.697ZM540.7 167.271V124.195C540.7 98.4147 525.233 83.9541 505.935 83.9541C495.621 83.9541 487.31 88.1094 478.991 96.2626L477.67 85.1175H459.535V167.28H479.656V125.359C479.656 112.884 488.141 102.404 500.651 102.404C513.624 102.404 520.448 111.887 520.448 124.361V167.271H540.7ZM597.886 102.238C610.693 102.238 621.672 111.86 621.672 126.19C621.672 140.992 610.693 150.308 597.886 150.308C584.913 150.308 574.599 140.493 574.599 126.19C574.607 111.362 584.921 102.238 597.886 102.238V102.238ZM623.01 51V96.4113C618.19 87.9257 604.718 83.2892 596.066 83.2892C572.114 83.2892 554.321 97.9248 554.321 126.199C554.321 153.143 572.447 169.108 596.565 169.108C606.547 169.108 616.686 165.784 623.01 155.986L624.34 167.297H643.306V51H623.01ZM725.827 93.7607C716.344 85.4412 706.703 82.948 693.888 82.948C678.92 82.948 659.289 89.6053 659.289 108.562C659.289 127.187 677.756 132.847 693.223 134.011C704.866 134.675 709.52 137.002 709.52 142.663C709.52 148.646 702.364 152.644 694.719 152.478C685.568 152.312 672.262 147.491 666.445 141L656.498 155.461C668.474 167.936 681.448 170.097 694.421 170.097C717.875 170.097 729.685 157.622 729.685 143.152C729.685 121.361 710.054 117.87 694.587 116.908C684.09 116.243 679.287 113.251 679.287 107.924C679.287 102.771 684.606 99.7706 694.255 99.7706C702.076 99.7706 708.724 101.599 714.542 107.093L725.827 93.7607ZM782.243 149.643C768.439 149.643 758.956 139.146 758.956 126.356C758.956 113.566 767.608 103.069 782.243 103.069C796.879 103.069 805.531 113.566 805.531 126.356C805.531 139.146 796.048 149.643 782.243 149.643ZM827.655 201.537V85.275H808.715L807.385 96.5863C801.069 87.4358 790.09 83.4641 780.774 83.4641C755.492 83.4641 738.695 102.255 738.695 126.374C738.695 150.326 753.829 169.283 780.109 169.283C788.761 169.283 801.568 166.659 807.385 157.639V201.546L827.655 201.537ZM845.457 85.275V167.271H865.753V124.029C865.753 108.895 875.568 103.235 886.214 103.235C892.872 103.235 896.712 105.063 900.85 108.554L910 90.9263C905.513 86.4385 897.359 83.1055 888.874 83.1055C880.554 83.1055 872.077 84.6014 865.753 94.7492L864.257 85.2663L845.457 85.275Z" fill="#213F7D"/>
<defs>
<linearGradient id="paint0_linear" x1="167.278" y1="208.501" x2="276.533" y2="27.1089" gradientUnits="userSpaceOnUse">
<stop stop-color="#213F7D"/>
<stop offset="1" stop-color="#39CDCC"/>
</linearGradient>
</defs>
</svg>
