<svg width="200" height="80" viewBox="0 0 200 80" fill="none" xmlns="http://www.w3.org/2000/svg">
<rect width="200" height="80" rx="40" fill="black"/>
<path d="M43.2231 30.7238L43.3965 33.0558C44.8742 31.2441 46.8722 30.3383 49.3906 30.3383C52.076 30.3383 53.9198 31.3983 54.922 33.5184C56.3868 31.3983 58.4748 30.3383 61.1859 30.3383C63.4473 30.3383 65.1305 31 66.2355 32.3234C67.3405 33.634 67.893 35.6128 67.893 38.2597V51.5776H62.3037V38.2789C62.3037 37.0968 62.0725 36.2359 61.6099 35.6963C61.1473 35.1438 60.3314 34.8675 59.1622 34.8675C57.4918 34.8675 56.3354 35.6642 55.693 37.2574L55.7122 51.5776H50.1422V38.2982C50.1422 37.0904 49.9045 36.2167 49.4291 35.677C48.9537 35.1374 48.1442 34.8675 47.0007 34.8675C45.4203 34.8675 44.2767 35.5228 43.57 36.8334V51.5776H38V30.7238H43.2231Z" fill="white"/>
<path d="M84.2754 51.5776C84.0184 51.0765 83.8321 50.4533 83.7165 49.708C82.3673 51.2114 80.6135 51.963 78.4548 51.963C76.4119 51.963 74.7158 51.372 73.3667 50.1899C72.0304 49.0078 71.3622 47.5173 71.3622 45.7185C71.3622 43.5084 72.1781 41.8124 73.81 40.6303C75.4546 39.4482 77.8253 38.8507 80.9218 38.8379H83.4852V37.6429C83.4852 36.6792 83.2347 35.9083 82.7335 35.3301C82.2453 34.7519 81.4679 34.4628 80.4015 34.4628C79.4635 34.4628 78.7247 34.6876 78.185 35.1374C77.6582 35.5871 77.3948 36.2038 77.3948 36.9876H71.8248C71.8248 35.7798 72.1974 34.662 72.9427 33.634C73.6879 32.6061 74.7415 31.8031 76.1035 31.2249C77.4655 30.6338 78.9945 30.3383 80.6906 30.3383C83.2603 30.3383 85.2969 30.9872 86.8002 32.2849C88.3164 33.5698 89.0745 35.3815 89.0745 37.72V46.7592C89.0873 48.738 89.3636 50.2349 89.9032 51.2499V51.5776H84.2754ZM79.6691 47.7036C80.4914 47.7036 81.2495 47.5237 81.9433 47.164C82.6372 46.7913 83.1511 46.2967 83.4852 45.6799V42.0951H81.4037C78.6155 42.0951 77.1314 43.0587 76.9515 44.9861L76.9323 45.3137C76.9323 46.0076 77.1764 46.5793 77.6646 47.029C78.1529 47.4788 78.821 47.7036 79.6691 47.7036Z" fill="white"/>
<path d="M99.2316 51.5776H93.6423V21.9736H99.2316V51.5776Z" fill="white"/>
<path d="M109.716 51.5776H104.127V21.9736H109.716V51.5776Z" fill="white"/>
<path d="M132.536 41.3819C132.536 44.5685 131.804 47.1318 130.339 49.072C128.874 50.9994 126.908 51.963 124.441 51.963C121.807 51.963 119.771 51.0315 118.331 49.1684L118.158 51.5776H114.882V21.9736H118.447V33.0173C119.886 31.2313 121.871 30.3383 124.403 30.3383C126.934 30.3383 128.919 31.2955 130.358 33.21C131.81 35.1245 132.536 37.7457 132.536 41.0736V41.3819ZM128.97 40.9772C128.97 38.5488 128.501 36.6728 127.563 35.3494C126.625 34.0259 125.276 33.3642 123.516 33.3642C121.165 33.3642 119.475 34.4564 118.447 36.6407V45.6606C119.539 47.845 121.242 48.9371 123.555 48.9371C125.263 48.9371 126.593 48.2754 127.544 46.952C128.495 45.6285 128.97 43.6369 128.97 40.9772Z" fill="white"/>
<path d="M140.92 51.5776H137.354V21.9736H140.92V51.5776Z" fill="white"/>
<path d="M153.467 46.3545L158.324 30.7238H162.14L153.756 54.7962C152.458 58.2654 150.396 60 147.569 60L146.895 59.9422L145.565 59.6917V56.8007L146.528 56.8777C147.736 56.8777 148.674 56.6336 149.342 56.1454C150.023 55.6571 150.582 54.7641 151.019 53.4664L151.809 51.3463L144.37 30.7238H148.263L153.467 46.3545Z" fill="white"/>
<path fill-rule="evenodd" clip-rule="evenodd" d="M73.5405 27.8944C75.7204 27.8944 77.4876 26.1272 77.4876 23.9472C77.4876 21.7672 75.7204 20 73.5405 20C71.3605 20 69.5933 21.7672 69.5933 23.9472C69.5933 26.1272 71.3605 27.8944 73.5405 27.8944Z" fill="#FFE500"/>
</svg>
