<svg width="200" height="80" viewBox="0 0 200 80" fill="none" xmlns="http://www.w3.org/2000/svg">
<rect width="200" height="80" rx="40" fill="#0066A1"/>
<path d="M46.0342 20.1449C44.597 19.6 43.0546 20.6593 43.0546 22.1894V24.9617L63.7015 32.7471C65.1387 33.292 66.6811 32.2327 66.6811 30.7027V27.9303L46.0342 20.1449ZM36 28.3836V31.1778V41.9666C36 43.4923 37.5336 44.5515 38.9708 44.0153L41.9986 42.8907V33.3966L63.719 41.4173C65.1606 41.9491 66.6855 40.8899 66.6855 39.3686V36.5744L38.9621 26.3349C37.5292 25.803 36 26.8579 36 28.3836Z" fill="#00AEEF"/>
<path d="M36 39.2639V42.058C36 43.5837 37.5292 44.6386 38.9665 44.1112L65.2483 34.4035C66.1115 34.0853 66.6811 33.2657 66.6811 32.3503V27.9346L36 39.2639ZM43.0546 51.4214L65.2614 43.0476C66.1158 42.725 66.6811 41.9098 66.6811 41.0031V36.5699L43.0546 45.4799V51.4214ZM43.0546 60.0001L47.6204 58.3044C48.4793 57.9862 49.0489 57.1667 49.0489 56.2556V51.8442L43.0546 54.0717V60.0001Z" fill="white"/>
<path d="M97.5156 47.825L103.545 41.0466C106.91 37.5201 108.396 35.4932 108.396 32.42V32.3154C108.396 28.5491 105.539 25.9119 101.617 25.9119C98.5979 25.9119 96.5428 27.1455 94.8734 29.2422C93.4449 27.3329 90.978 26.2562 87.8451 26.2562H80.5845V50.2225H83.1653V41.7659H87.5339C92.4547 41.731 96.3106 38.9935 96.3106 33.9195V33.8498C96.3106 33.0521 96.2142 32.3023 96.0258 31.6179C97.6251 29.4079 99.1938 28.2701 101.376 28.2701C103.786 28.2701 105.705 29.9135 105.705 32.5508C105.705 34.7695 104.605 36.5219 101.713 39.6038L93.9357 48.2304V50.2182H108.562V47.8207H97.5156V47.825ZM93.6947 33.9936C93.6947 37.2804 91.3548 39.4381 87.6041 39.4381H83.1653V28.6189H87.7092C91.3505 28.6189 93.6903 30.4671 93.6903 33.9588V33.9936H93.6947Z" fill="white"/>
<path d="M125.603 26.2563L118.478 46.6656L111.388 26.2563H108.566L117.273 50.397H119.648L128.319 26.2563H125.603V26.2563ZM133.814 32.0409C129.616 32.0409 126.413 35.842 126.413 41.2865V41.4565C126.413 47.1059 129.993 50.5975 134.366 50.5975C137.052 50.5975 138.91 49.5688 140.527 47.9254L139.116 46.3518C137.876 47.5854 136.43 48.4049 134.471 48.4049C131.65 48.4049 129.205 46.2123 128.928 42.276H140.974C141.009 41.9665 141.009 41.487 141.009 41.2473C141.009 35.8769 138.323 32.0409 133.814 32.0409ZM128.928 40.3624C129.169 36.631 131.163 34.1986 133.814 34.1986C136.741 34.1986 138.358 36.971 138.529 40.3624H128.928ZM148.375 40.0878C145.93 39.059 144.383 38.3092 144.383 36.801V36.7313C144.383 35.3276 145.588 34.2335 147.481 34.2335C149.063 34.2335 150.614 34.9179 151.99 35.9117L153.195 34.0286C151.679 32.8996 149.58 32.1106 147.551 32.1106C144.348 32.1106 141.973 34.0635 141.973 36.971V37.0408C141.973 39.8131 144.243 40.9421 147.1 42.1758C149.51 43.1696 150.991 43.9891 150.991 45.5671V45.602C150.991 47.2803 149.615 48.3744 147.652 48.3744C145.864 48.3744 144.107 47.6203 142.42 46.2166L141.11 48.03C143.003 49.6734 145.378 50.5278 147.582 50.5278C150.815 50.5278 153.396 48.5749 153.396 45.3928V45.323C153.401 42.6204 151.332 41.3868 148.375 40.0878ZM164 34.5735V32.3809H159.32V27.1805H156.84V32.3852H154.671V34.5779H156.84V46.0815C156.84 49.2637 158.768 50.4973 161.314 50.4973C162.348 50.4973 163.207 50.2575 164 49.8826V47.7598C163.277 48.0693 162.589 48.2393 161.901 48.2393C160.354 48.2393 159.32 47.5549 159.32 45.6718V34.5735H164Z" fill="#3AB449"/>
</svg>
